<?xml version="1.0" encoding="UTF-8"?>
<svg xmlns="http://www.w3.org/2000/svg" width="25pt" height="25pt" viewBox="0 0 25 25" version="1.1">
    <g id="surface1">
        <path style=" stroke:none;fill-rule:nonzero;fill:rgb(0%,0%,0%);fill-opacity:1;"
              d="M 14.453125 7.03125 C 14.148438 7.03125 13.871094 7.152344 13.664062 7.34375 L 13.660156 7.339844 L 8.972656 11.636719 C 8.730469 11.859375 8.59375 12.171875 8.59375 12.5 C 8.59375 12.828125 8.730469 13.140625 8.972656 13.363281 L 13.660156 17.660156 L 13.664062 17.65625 C 13.871094 17.847656 14.148438 17.96875 14.453125 17.96875 C 15.101562 17.96875 15.625 17.445312 15.625 16.796875 C 15.625 16.457031 15.476562 16.148438 15.242188 15.9375 L 15.246094 15.933594 L 11.5 12.5 L 15.246094 9.066406 L 15.242188 9.0625 C 15.476562 8.851562 15.625 8.546875 15.625 8.203125 C 15.625 7.554688 15.101562 7.03125 14.453125 7.03125 Z M 12.5 0 C 5.597656 0 0 5.597656 0 12.5 C 0 19.402344 5.597656 25 12.5 25 C 19.402344 25 25 19.402344 25 12.5 C 25 5.597656 19.402344 0 12.5 0 Z M 12.5 22.65625 C 6.898438 22.65625 2.34375 18.101562 2.34375 12.5 C 2.34375 6.898438 6.898438 2.34375 12.5 2.34375 C 18.101562 2.34375 22.65625 6.898438 22.65625 12.5 C 22.65625 18.101562 18.101562 22.65625 12.5 22.65625 Z M 12.5 22.65625 "/>
    </g>
</svg>
